<svg xmlns="http://www.w3.org/2000/svg" width="108" height="108" fill="none" viewBox="0 0 108 108"><g filter="url(#a)"><rect width="56" height="56" x="17.574" y="34.082" fill="#fff" rx="12" shape-rendering="crispEdges" transform="rotate(-20.386 17.574 34.082)"/><rect width="55" height="55" x="18.217" y="34.377" stroke="#e8811d" rx="11.5" shape-rendering="crispEdges" transform="rotate(-20.386 18.217 34.377)"/><g stroke="#e8811d" stroke-width="1.5" clip-path="url(#b)"><path d="m45.577 63.504-6.503-17.497a2.667 2.667 0 0 1 1.571-3.43l17.498-6.502a2.667 2.667 0 0 1 3.428 1.571l6.503 17.498a2.667 2.667 0 0 1-1.571 3.428l-17.497 6.503a2.667 2.667 0 0 1-3.429-1.571Z"/><path stroke-linecap="round" stroke-linejoin="round" d="m56.753 52.025 3.678 1.691m-3.678-1.691a4.571 4.571 0 1 0-8.317-3.797 4.571 4.571 0 0 0 8.317 3.797"/></g></g><defs><clipPath id="b"><path fill="#fff" d="m33.003 41.15 29.996-11.147L74.146 60 44.15 71.146z"/></clipPath><filter id="a" width="114" height="114" x="-3.426" y="-3.426" color-interpolation-filters="sRGB" filterUnits="userSpaceOnUse"><feFlood flood-opacity="0" result="BackgroundImageFix"/><feColorMatrix in="SourceAlpha" result="hardAlpha" values="0 0 0 0 0 0 0 0 0 0 0 0 0 0 0 0 0 0 127 0"/><feOffset dy="3"/><feGaussianBlur stdDeviation="10.5"/><feComposite in2="hardAlpha" operator="out"/><feColorMatrix values="0 0 0 0 0.850962 0 0 0 0 0.42542 0 0 0 0 0.0122735 0 0 0 0.25 0"/><feBlend in2="BackgroundImageFix" result="effect1_dropShadow_22115_3902"/><feBlend in="SourceGraphic" in2="effect1_dropShadow_22115_3902" result="shape"/></filter></defs></svg>